<?xml version="1.0" encoding="UTF-8" standalone="no"?>
<svg
   xmlns:dc="http://purl.org/dc/elements/1.1/"
   xmlns:cc="http://creativecommons.org/ns#"
   xmlns:rdf="http://www.w3.org/1999/02/22-rdf-syntax-ns#"
   xmlns:svg="http://www.w3.org/2000/svg"
   xmlns="http://www.w3.org/2000/svg"
   id="svg20"
   version="1.1"
   xml:space="preserve"
   viewBox="0 0 1518.938 563.21675"
   height="49.172916"
   width="130.42073"
   y="0px"
   x="0px"><metadata
     id="metadata26"><rdf:RDF><cc:Work
         rdf:about=""><dc:format>image/svg+xml</dc:format><dc:type
           rdf:resource="http://purl.org/dc/dcmitype/StillImage" /></cc:Work></rdf:RDF></metadata><defs
     id="defs24" /><g
     transform="translate(0,-4.8161538)"
     id="g16"><g
       id="g4"><path
         id="path2"
         d="m 1518.938,286.935 c 0,16.718 -13.668,30.381 -30.39,30.381 -16.574,0 -30.386,-13.512 -30.386,-30.381 0,-17.211 14.126,-30.401 30.386,-30.401 16.411,0 30.39,13.19 30.39,30.401 z m -55.875,-0.096 c 0,14.161 11.424,25.589 25.411,25.589 14.147,0 25.563,-11.67 25.563,-25.589 0,-14.15 -11.584,-25.402 -25.563,-25.402 -13.844,0 -25.411,11.095 -25.411,25.402 z m 14.075,-16.966 h 11.728 c 4.021,0 11.916,0 11.916,9.007 0,6.283 -4.04,7.567 -6.449,8.368 4.681,0.313 4.99,3.381 5.635,7.723 0.325,2.725 0.814,7.405 1.782,9.006 h -7.254 c -0.163,-1.601 -1.289,-10.304 -1.289,-10.779 -0.475,-1.933 -1.141,-2.89 -3.551,-2.89 h -5.942 v 13.669 h -6.575 v -34.104 z m 6.402,14.966 h 5.325 c 4.341,0 5.137,-3.054 5.137,-4.816 0,-4.675 -3.208,-4.675 -4.974,-4.675 h -5.488 z" /></g><path
       id="path6"
       d="m 1495.724,364.325 c -4.143,0 -8.983,3.478 -8.983,9.706 -1.384,26.99 -29.071,48.436 -59.517,53.28 4.84,-13.141 7.604,-27.687 7.604,-40.135 0,-40.145 -26.299,-71.305 -58.809,-71.305 -27.021,0 -57.471,22.843 -57.471,66.464 0,31.835 17.31,65.05 58.136,76.131 -12.448,20.771 -31.839,34.599 -48.455,34.599 -24.894,0 -41.53,-26.29 -41.53,-61.603 0,-32.526 14.548,-62.276 30.486,-79.595 2.055,-2.067 2.742,-4.836 2.742,-6.912 0,-6.241 -4.165,-11.761 -9.688,-11.761 -2.059,0 -4.857,1.367 -6.903,2.747 -9.707,6.237 -23.553,19.386 -31.187,28.383 -23.47,26.936 -35.22,60.038 -35.283,88.383 -23.194,22.562 -46.978,36.91 -60.9,36.91 -7.604,0 -12.474,-4.849 -12.474,-15.914 0,-29.082 39.456,-66.458 49.158,-76.143 4.164,-3.461 6.224,-8.997 6.224,-13.842 0,-12.461 -7.621,-19.395 -17.988,-20.078 -15.23,-0.684 -37.394,0 -56.079,-4.849 11.77,-17.998 19.396,-36 19.396,-55.369 0,-16.618 -11.082,-31.156 -30.455,-31.156 -27.688,0 -65.075,29.771 -65.075,72.688 0,21.454 8.317,35.295 27.686,47.744 -11.06,14.546 -23.534,31.159 -33.236,42.24 -0.106,0.129 -0.204,0.252 -0.309,0.38 -32.44,37.796 -68.991,54.298 -97.964,54.298 -29.745,0 -50.507,-17.298 -50.507,-49.141 0,-47.073 33.885,-100.365 63.656,-100.365 9.702,0 15.922,6.224 15.922,19.381 0,18.682 -14.537,49.833 -58.15,84.449 -6.911,5.532 -9.667,10.385 -9.667,14.524 0,4.84 4.147,8.309 9.667,8.309 2.089,0 4.853,-0.692 7.634,-2.084 48.437,-22.146 100.366,-69.198 100.366,-106.591 0,-21.449 -16.608,-42.229 -51.238,-42.229 -76.813,0 -128.723,71.305 -128.723,134.286 0,1.681 0.067,3.333 0.167,4.972 -24.531,24.857 -43.715,36.568 -52.076,36.568 -4.835,0 -6.925,-3.473 -6.925,-9 0,-3.461 1.376,-8.994 2.781,-13.851 11.055,-37.385 27.66,-74.072 40.827,-102.438 7.608,-16.609 15.226,-31.143 15.226,-40.144 0,-6.237 -4.161,-10.395 -13.842,-10.395 -35.304,0 -71.991,25.624 -71.991,39.456 0,4.857 4.845,6.929 9.697,6.929 2.076,0 4.148,-0.699 6.225,-0.699 2.071,0 3.451,0.699 3.451,2.768 0,2.085 -1.38,4.861 -3.451,9.706 -5.911,12.331 -17.628,35.068 -27.439,61.433 -32.424,37.692 -68.899,54.154 -97.817,54.154 -29.783,0 -50.553,-17.298 -50.553,-49.141 0,-43.621 30.479,-99.683 65.761,-99.683 13.845,0 18.008,11.073 18.008,20.763 0,20.077 -12.475,21.461 -15.933,21.461 -0.692,0 -2.076,0 -3.458,0 -6.915,0 -11.078,6.229 -11.078,11.082 0,8.997 9.694,19.369 26.305,19.369 27.005,0 51.929,-26.293 51.929,-54.677 0,-24.923 -22.867,-42.921 -53.312,-42.921 -73.353,0 -128.756,67.848 -128.756,134.286 0,1.716 0.069,3.401 0.171,5.073 -24.331,24.787 -43.135,36.467 -52.047,36.467 -4.847,0 -6.249,-4.16 -6.249,-9.705 0,-3.451 0.697,-8.289 2.098,-13.146 10.369,-35.3 27.68,-75.443 40.836,-102.438 6.222,-13.158 9.689,-24.914 9.689,-31.848 0,-12.453 -8.309,-18.69 -20.079,-18.69 -27.697,0 -77.525,29.084 -112.139,68.54 l 15.932,-46.377 c 1.374,-4.165 2.065,-7.621 2.065,-10.397 0,-8.297 -4.855,-11.766 -11.763,-11.766 -33.915,0 -67.14,27.008 -67.14,38.089 0,4.832 4.847,6.912 9.697,6.912 2.073,0 4.839,-0.688 6.231,-0.688 2.076,0 2.762,1.372 2.762,2.772 0,2.068 -1.393,5.528 -2.762,9.68 l -21.253,62.078 c -0.065,0.078 -0.143,0.146 -0.206,0.225 -33.904,38.764 -60.217,56.758 -71.3,56.758 -4.846,0 -6.221,-3.473 -6.221,-9 0,-4.156 1.375,-8.31 2.748,-13.851 10.4,-36.691 27.01,-74.072 40.159,-102.438 8.309,-17.994 15.228,-32.54 15.228,-40.144 0,-6.237 -4.146,-10.395 -13.846,-10.395 -20.755,0 -23.533,17.323 -78.212,17.323 H 222.201 L 283.788,154.6 c 1.403,-4.154 2.09,-6.92 2.09,-9.695 32.539,18.688 58.832,36.009 75.44,36.009 24.922,0 43.608,-33.234 43.608,-40.157 0,-4.849 -4.15,-8.307 -9.684,-8.307 -4.166,0 -7.613,2.775 -13.854,2.775 -31.141,0 -78.207,-62.993 -210.423,-62.993 C 43.603,72.231 0,162.918 0,217.588 c 0,60.91 34.62,98.283 86.514,98.283 36.022,0 49.856,-11.77 49.856,-20.762 0,-6.229 -6.245,-11.068 -15.228,-11.068 -40.851,0 -76.844,-38.768 -76.844,-87.219 0,-70.61 50.536,-98.977 104.527,-98.977 40.851,0 80.984,16.598 115.576,35.308 -15.208,3.456 -34.592,16.603 -40.826,34.601 0,0 -28.384,83.062 -56.761,165.441 h -23.532 c -15.227,0 -29.768,13.141 -29.768,21.45 0,4.147 3.463,6.912 11.067,6.912 h 31.847 c -20.751,62.302 -40.143,118.368 -44.994,132.209 -11.058,31.839 -42.916,55.386 -59.518,59.526 -10.385,2.776 -15.928,6.24 -15.928,11.765 0,6.237 6.936,7.621 13.835,7.621 42.237,0.692 99.685,-29.066 132.218,-123.204 l 30.47,-87.917 h 61.578 c 2.094,0 2.786,1.4 2.786,2.768 0,8.312 -24.209,49.846 -37.378,94.838 -2.785,9.685 -4.144,18.695 -4.144,26.298 0,22.855 11.743,38.063 36.68,38.063 18.69,0 46.025,-13.602 75.019,-40.465 l -6.513,19.024 c -1.381,4.139 -2.066,7.626 -2.066,10.376 0,7.613 4.835,11.064 11.758,11.064 14.551,0 37.387,-13.814 44.299,-35.299 l 10.387,-30.45 c 13.16,-38.067 76.142,-95.519 92.061,-95.519 2.074,0 3.454,1.385 3.454,4.153 0,9.688 -22.827,41.523 -37.377,92.753 -2.749,9.685 -4.146,18.695 -4.146,26.298 0,22.855 11.758,38.063 36.701,38.063 19.405,0 47.713,-14.682 77.786,-43.667 11.448,26.859 38.741,43.667 73.071,43.667 37.245,0 76.69,-17.842 108.334,-45.641 -0.228,2.383 -0.355,4.695 -0.355,6.886 0,23.547 11.765,38.755 37.376,38.755 19.435,0 47.781,-14.711 77.887,-43.755 11.582,26.91 39.146,43.755 72.986,43.755 46.386,0 95.517,-27.683 130.142,-67.834 0.121,-0.145 0.23,-0.284 0.349,-0.428 11.729,-13.812 27.479,-33.67 41.872,-52.857 12.456,4.841 26.294,8.297 40.135,9.686 -29.759,26.302 -39.447,50.537 -39.447,67.146 0,20.762 15.913,44.287 44.979,44.287 20.464,0 47.457,-11.674 80.201,-43.794 8.406,25.864 29.665,43.794 61.692,43.794 42.921,0 83.083,-28.374 105.22,-60.896 59.549,0 96.889,-38.769 96.889,-78.216 -10e-4,-10.379 -1.364,-20.085 -9.003,-20.085 z m -371.665,-15.909 c -6.237,-5.536 -13.15,-17.31 -13.15,-29.075 0,-10.381 6.203,-21.445 13.851,-21.445 4.822,0 8.305,4.836 8.305,17.977 0,11.764 -4.168,23.542 -9.006,32.543 z m 264.387,76.126 c -29.758,-8.3 -47.073,-32.527 -47.073,-51.905 0,-13.145 10.389,-23.534 22.172,-23.534 19.378,0 26.268,30.456 26.268,56.071 0,6.219 -0.662,12.449 -1.367,19.368 z" /><g
       id="g14"><path
         id="path8"
         d="m 677.61,65.069 c 7.196,0 14.239,-2.124 20.478,-5.644 l 124.31,155.792 c 3.175,-3.131 6.708,-5.93 10.502,-8.324 L 708.758,51.278 c 7.177,-7.259 11.776,-16.53 11.776,-25.657 C 720.534,10.394 707.369,0 692.145,0 c -21.462,0 -42.218,18.699 -42.218,39.465 0,5.754 1.782,10.814 4.817,14.885 l -123.29,127.098 c -3.873,-1.693 -8.217,-2.619 -12.747,-2.619 -18.967,0 -37.354,14.587 -41.388,32.309 l -93.717,17.957 c 0.535,2.534 0.83,5.177 0.83,7.878 0,1.91 -0.185,3.804 -0.429,5.69 l 93.304,-17.868 c 2.991,11.594 13.924,19.097 26.869,19.097 22.14,0 42.917,-20.07 42.917,-39.452 0,-5.692 -1.84,-10.707 -4.939,-14.756 L 665.39,62.619 c 3.692,1.587 7.84,2.45 12.22,2.45 z" /><path
         id="path10"
         d="m 342.629,211.356 c -21.454,0 -42.229,18.687 -42.229,39.46 0,15.226 12.471,25.613 27.702,25.613 22.146,0 42.917,-20.081 42.917,-39.457 -0.001,-15.225 -13.167,-25.616 -28.39,-25.616 z" /><path
         id="path12"
         d="m 862.428,211.356 c -21.475,0 -42.92,19.375 -42.92,39.46 0,14.54 12.453,25.613 28.37,25.613 22.842,0 42.232,-20.773 42.232,-39.457 0,-16.611 -12.456,-25.616 -27.682,-25.616 z" /></g></g><path
     id="path18"
     d="m 1476.887,159.79485 c -2.344,0 -5.06,1.953 -5.06,5.461 -0.788,15.213 -16.004,27.3 -33.553,30.033 2.729,-7.414 3.897,-15.212 3.897,-22.234 0,-22.233 -14.438,-40.176 -32.76,-40.176 -8.582,0 -17.168,3.905 -23.012,10.531 20.672,-42.514 37.437,-93.607004 37.437,-129.491004 0,-12.8719998 -3.504,-18.7219998 -8.572,-18.7219998 -23.337,0 -85.081,109.0070038 -85.415,204.3860038 -19.106,21.841 -33.929,31.98 -39.775,31.98 -2.729,0 -3.901,-2.342 -3.901,-5.463 0,-11.311 23.007,-62.017 30.814,-79.955 1.557,-3.515 1.946,-6.244 1.946,-7.025 0,-4.292 -3.118,-6.243 -7.405,-6.243 -7.8,0 -20.285,7.415 -26.921,21.064 -19.11,41.346 -45.244,76.451 -56.157,76.451 -3.127,0 -5.073,-3.125 -5.073,-10.144 0,-22.234 19.11,-50.708 30.424,-74.889 1.169,-1.951 1.562,-3.897 1.562,-5.852 0,-4.68 -4.296,-7.022 -9.364,-7.022 -19.11,0 -38.617,14.82 -38.617,21.845 0,2.734 2.733,3.9 5.467,3.9 1.164,0 2.729,-0.392 3.504,-0.392 1.177,0 1.95,0.785 1.95,1.563 0,1.173 -1.167,3.508 -1.95,5.074 -5.274,10.547 -11.22,23.254 -15.226,35.582 -14.269,16.53 -27.366,28.769 -36.246,28.769 -5.849,0 -10.532,-8.184 -11.705,-31.203 32.765,-44.074 68.645,-136.120004 68.645,-183.706004 0,-12.8719998 -3.509,-18.7219998 -8.967,-18.7219998 -23.4,0 -87.369,109.9950038 -87.369,205.1630038 0,0.938 0.015,1.87 0.036,2.798 -16.753,19 -29.689,28.385 -55.794,40.885 -12.475,5.854 -26.121,9.357 -38.612,9.357 -37.44,0 -51.477,-34.319 -51.477,-63.966 0,-76.057 79.959,-180.5890038 126.76,-180.5890038 10.921,0 19.494,6.6359998 19.494,24.1819998 0,40.957 -33.146,67.484004 -65.918,74.889004 -3.504,0.783 -6.233,3.125 -6.233,5.461 0,3.516 5.463,7.413 20.671,7.413 46.805,0 85.422,-42.127004 85.422,-77.621004 0,-30.033 -24.971,-47.9729998 -54.612,-47.9729998 -14.425,0 -30.81,4.29099995 -46.018,12.868 C 992.896,45.509846 942.578,130.92885 942.578,196.06685 c 0,20.672 5.849,43.288 20.287,58.502 9.749,10.141 28.079,22.62 51.479,22.62 25.352,0 47.978,-9.751 68.658,-21.837 17.53,-10.393 32.073,-23.481 44.112,-36.349 3.302,17.525 11.715,30.496 26.062,30.496 11.195,0 25.164,-7.5 43.316,-26.483 -0.017,0.511 -0.028,1.02 -0.028,1.522 0,16.382 7.795,24.961 19.114,24.961 12.872,0 30.03,-10.923 46.41,-33.539 -1.56,5.458 -2.343,10.137 -2.343,14.816 0,11.307 5.463,18.722 18.728,18.722 12.786,0 32.752,-11.291 52.858,-33.549 4.529,23.492 19.647,33.549 37.227,33.549 17.942,0 39.002,-10.53 53.822,-27.687 1.95,-1.955 3.507,-4.299 5.068,-6.637 33.937,0 54.997,-22.234 54.997,-44.465 10e-4,-6.625 -1.552,-10.914 -5.458,-10.914 z m -320.982,-13.261 c 7.803,-49.152004 27.696,-108.825004 35.105,-108.825004 1.557,0 2.34,2.731 2.34,8.975 0,6.233 -12.864,80.348004 -40.175,129.494004 10e-4,-8.586 1.174,-19.112 2.73,-29.644 z M 1393.027,37.708846 c 1.167,0 2.34,2.731 2.34,8.975 0,14.043 -14.435,79.959004 -37.838,125.203004 1.955,-50.315 27.704,-134.178004 35.498,-134.178004 z M 1382.49,232.33985 c -15.208,0 -23.006,-12.869 -24.572,-39.003 6.644,-10.141 14.049,-21.837 20.67,-34.711 -1.162,3.896 -1.552,8.192 -1.552,12.483 0,17.548 8.971,36.268 32.765,42.121 -7.025,11.701 -17.937,19.11 -27.311,19.11 z m 34.331,-38.225 c -16.77,-3.897 -26.524,-15.211 -26.524,-28.08 0,-1.951 0.391,-4.287 0.783,-6.24 1.164,-5.071 5.853,-8.581 10.927,-8.581 10.912,0 15.593,16.378 15.593,31.982 0,3.514 -0.38,7.413 -0.779,10.919 z" /></svg>