<?xml version="1.0" encoding="utf-8"?>
<!-- Generator: Adobe Illustrator 16.0.0, SVG Export Plug-In . SVG Version: 6.00 Build 0)  -->
<!DOCTYPE svg PUBLIC "-//W3C//DTD SVG 1.1//EN" "http://www.w3.org/Graphics/SVG/1.1/DTD/svg11.dtd">
<svg version="1.1" id="Layer_1" xmlns="http://www.w3.org/2000/svg" xmlns:xlink="http://www.w3.org/1999/xlink" x="0px" y="0px"
	 width="600px" height="600px" viewBox="0 0 600 600" enable-background="new 0 0 600 600" xml:space="preserve">
<g>
	<path d="M438.46,320.588c0,9.688-16.952,25.026-34.716,25.026H310.9L276.184,448.15
		c-37.139,110.604-105.764,143.707-155.012,143.707c-8.075,0-16.147-1.613-16.147-8.88c0-17.764,63.78-13.726,88.001-83.157
		l53.285-154.206h-37.945c-8.881,0-12.917-3.228-12.917-8.072c0-9.688,16.954-25.027,34.716-25.027h27.45
		c33.101-96.075,66.202-192.958,66.202-192.958c7.267-20.991,29.874-36.331,47.634-39.56
		c-41.174-21.799-87.194-41.982-134.02-41.982c-63.781,0-121.91,33.101-121.91,115.451c0,56.515,41.175,101.727,88.809,101.727
		c10.496,0,17.762,5.652,17.762,12.917c0,10.495-16.147,24.221-58.129,24.221c-59.744,0-100.112-43.597-100.112-114.644
		c0-63.781,50.864-169.544,198.608-169.544c149.361,0,215.562,73.469,245.434,73.469c8.073,0,11.305-2.422,16.147-2.422
		c5.651,0,12.11,3.229,12.11,8.88c0,8.074-22.606,46.828-51.671,46.828c-19.376,0-50.863-19.376-88.807-41.176
		c0,3.23,0,6.459-1.617,10.495c0,0-36.329,104.957-71.854,208.298h103.342C434.425,312.515,438.46,315.744,438.46,320.588z"/>
</g>
</svg>
